<?xml version="1.0" encoding="utf-8"?>
<svg viewBox="0 0 95 105" fill="none" xmlns="http://www.w3.org/2000/svg">
  <defs>
    <linearGradient id="paint1_linear" x1="53.3761" y1="113.413" x2="125.385" y2="30.6507" gradientUnits="userSpaceOnUse" gradientTransform="matrix(1.323102, 0, 0, 1.376129, -16.021831, 2.852379)">
      <stop stop-color="#F80759"/>
      <stop offset="1" stop-color="#BC4E9C"/>
    </linearGradient>
  </defs>
  <path fill-rule="evenodd" clip-rule="evenodd" d="M 40.837 4.231 L 54.054 4.231 C 75.953 4.231 93.71 22.713 93.71 45.517 L 93.71 59.279 C 93.71 82.078 75.953 100.562 54.054 100.562 L 40.837 100.562 C 18.929 100.562 1.177 82.078 1.177 59.279 L 1.177 45.517 C 1.177 22.713 18.929 4.231 40.837 4.231 Z" fill="url(#paint1_linear)" style=""/>
  <g fill-rule="evenodd" clip-rule="evenodd" stroke="none" stroke-width="1" transform="matrix(1, 0, 0, 1, -861.582593, -924.979567)">
    <path d="M1468.235 113v99.388l-112.94 112.941v-99.388H112.94v1468.235h1242.353v-438.211l112.941-112.941v664.094H0V113h1468.235ZM421.271 1163.353c96-9.035 154.729 108.423 190.87 197.647 28.235 68.894 38.4 92.612 72.283 96 33.882 3.388 89.223-58.73 112.94-101.647 16.53-26.51 51.42-34.6 77.93-18.07 26.51 16.529 34.6 51.42 18.07 77.929-9.035 16.94-92.611 160.376-205.552 160.376h-9.036c-70.023-4.517-121.976-48.564-169.411-166.023-47.436-117.46-77.93-127.624-77.93-127.624a484.518 484.518 0 0 0-97.13 225.883c-6.549 31.187-37.14 51.16-68.329 44.611-31.187-6.55-51.16-37.141-44.611-68.33 20.33-94.87 79.059-310.587 199.906-320.752Zm256.376-485.647v112.941H338.824V677.706h338.823ZM903.53 451.824v112.94H338.824v-112.94h564.705Z"/>
    <path d="m1903.059 468.765-225.883-225.883a56.47 56.47 0 0 0-80.188 0L919.341 920.53a56.476 56.476 0 0 0-15.813 39.53v282.353h282.354a56.47 56.47 0 0 0 39.53-16.941l677.647-677.647c21.523-21.959 21.523-57.101 0-79.06Zm-740.894 660.706H1016.47V983.776l451.764-451.764 145.694 145.694-451.764 451.765Zm531.953-531.953-145.694-145.694 89.223-89.224 145.694 145.694-89.223 89.224Z"/>
  </g>
  <g fill-rule="evenodd" clip-rule="evenodd" stroke="none" stroke-width="1" transform="matrix(1, 0, 0, 1, -911.065626, -917.533522)">
    <path d="M1468.235 113v99.388l-112.94 112.941v-99.388H112.94v1468.235h1242.353v-438.211l112.941-112.941v664.094H0V113h1468.235ZM421.271 1163.353c96-9.035 154.729 108.423 190.87 197.647 28.235 68.894 38.4 92.612 72.283 96 33.882 3.388 89.223-58.73 112.94-101.647 16.53-26.51 51.42-34.6 77.93-18.07 26.51 16.529 34.6 51.42 18.07 77.929-9.035 16.94-92.611 160.376-205.552 160.376h-9.036c-70.023-4.517-121.976-48.564-169.411-166.023-47.436-117.46-77.93-127.624-77.93-127.624a484.518 484.518 0 0 0-97.13 225.883c-6.549 31.187-37.14 51.16-68.329 44.611-31.187-6.55-51.16-37.141-44.611-68.33 20.33-94.87 79.059-310.587 199.906-320.752Zm256.376-485.647v112.941H338.824V677.706h338.823ZM903.53 451.824v112.94H338.824v-112.94h564.705Z"/>
    <path d="m1903.059 468.765-225.883-225.883a56.47 56.47 0 0 0-80.188 0L919.341 920.53a56.476 56.476 0 0 0-15.813 39.53v282.353h282.354a56.47 56.47 0 0 0 39.53-16.941l677.647-677.647c21.523-21.959 21.523-57.101 0-79.06Zm-740.894 660.706H1016.47V983.776l451.764-451.764 145.694 145.694-451.764 451.765Zm531.953-531.953-145.694-145.694 89.223-89.224 145.694 145.694-89.223 89.224Z"/>
  </g>
  <g id="SVGRepo_iconCarrier" transform="matrix(1, 0, 0, 1, -921.139296, -925.434828)">
    <g fill-rule="evenodd" clip-rule="evenodd" stroke="none" stroke-width="1">
      <path d="M 993.151 947.323 L 993.151 950.812 L 989.301 954.777 L 989.301 951.288 L 946.943 951.288 L 946.943 1002.829 L 989.301 1002.829 L 989.301 987.446 L 993.151 983.481 L 993.151 1006.794 L 943.092 1006.794 L 943.092 947.323 L 993.151 947.323 Z M 957.455 984.195 C 960.728 983.878 962.73 988.001 963.962 991.133 C 964.926 993.552 965.272 994.385 966.427 994.503 C 967.583 994.622 969.469 992.442 970.278 990.935 C 970.841 990.004 972.031 989.721 972.935 990.301 C 973.839 990.881 974.114 992.106 973.551 993.036 C 973.243 993.631 970.394 998.666 966.542 998.666 L 966.234 998.666 C 963.848 998.508 962.076 996.962 960.459 992.838 C 958.842 988.715 957.801 988.358 957.801 988.358 C 956.054 990.664 954.914 993.395 954.49 996.287 C 954.267 997.382 953.224 998.084 952.16 997.854 C 951.098 997.624 950.417 996.55 950.639 995.455 C 951.333 992.124 953.334 984.552 957.455 984.195 Z M 966.196 967.147 L 966.196 971.112 L 954.644 971.112 L 954.644 967.147 L 966.196 967.147 Z M 973.898 959.217 L 973.898 963.182 L 954.644 963.182 L 954.644 959.217 L 973.897 959.217 L 973.898 959.217 Z" style="fill: rgb(255, 255, 255); stroke: rgb(255, 255, 255);"/>
      <path d="M 1008.428 958.2 L 1000.727 950.271 C 999.973 949.489 998.746 949.489 997.993 950.271 L 974.888 974.059 C 974.54 974.432 974.346 974.929 974.349 975.447 L 974.349 985.358 L 983.976 985.358 C 984.483 985.351 984.968 985.138 985.323 984.764 L 1008.428 960.976 C 1009.161 960.205 1009.161 958.971 1008.428 958.2 Z M 983.167 981.394 L 978.2 981.394 L 978.2 976.279 L 993.602 960.42 L 998.57 965.535 L 983.167 981.394 Z M 1001.303 962.72 L 996.337 957.606 L 999.379 954.473 L 1004.346 959.588 L 1001.303 962.72 Z" style="fill: rgb(255, 255, 255); stroke: rgb(255, 255, 255);"/>
    </g>
  </g>
</svg>