<?xml version="1.0" encoding="utf-8"?>
<svg viewBox="0 0 95 105" fill="none" xmlns="http://www.w3.org/2000/svg">
  <defs>
    <linearGradient id="paint1_linear" x1="53.3761" y1="113.413" x2="125.385" y2="30.6507" gradientUnits="userSpaceOnUse" gradientTransform="matrix(1.324714, 0, 0, 1.336864, -16.471381, 3.956755)">
      <stop stop-color="#F80759"/>
      <stop offset="1" stop-color="#BC4E9C"/>
    </linearGradient>
  </defs>
  <path fill-rule="evenodd" clip-rule="evenodd" d="M 40.457 5.296 L 53.691 5.296 C 75.617 5.296 93.396 23.25 93.396 45.404 L 93.396 58.773 C 93.396 80.921 75.617 98.878 53.691 98.878 L 40.457 98.878 C 18.523 98.878 0.749 80.921 0.749 58.773 L 0.749 45.404 C 0.749 23.25 18.523 5.296 40.457 5.296 Z" fill="url(#paint1_linear)" style=""/>
  <g id="SVGRepo_bgCarrier" stroke-width="0" transform="matrix(1, 0, 0, 1, 24.819228, 36.707314)"/>
  <g id="SVGRepo_tracerCarrier" stroke-linecap="round" stroke-linejoin="round" transform="matrix(1, 0, 0, 1, 24.819228, 36.707314)"/>
  <g id="SVGRepo_iconCarrier" transform="matrix(2.137198, 0, 0, 2.030874, 15.885982, 21.864382)" style="">
    <g>
      <path d="M14.865,0C6.655,0,0,6.655,0,14.865c0,1.714,0.201,2.83,0.767,4.546c1.104,3.188,6.896-2.808,9.388,0.729 c2.492,3.535-5.62,6.64-0.18,8.764c2.475,0.601,3.175,0.826,4.89,0.826c8.21,0,14.865-6.654,14.865-14.864 C29.73,6.655,23.075,0,14.865,0z M22.077,4.955c1.694,0,3.069,1.17,3.069,2.614c0,1.442-1.375,2.613-3.069,2.613 c-1.695,0-3.07-1.171-3.07-2.613C19.007,6.125,20.381,4.955,22.077,4.955z M4.74,15.802c-1.695,0-3.069-1.171-3.069-2.614 s1.375-2.614,3.069-2.614c1.696,0,3.071,1.171,3.071,2.614S6.437,15.802,4.74,15.802z M8.335,9.784c-1.695,0-3.07-1.17-3.07-2.614 c0-1.444,1.375-2.614,3.07-2.614s3.07,1.17,3.07,2.614C11.405,8.614,10.03,9.784,8.335,9.784z M12.078,4.189 c0-1.443,1.374-2.615,3.07-2.615c1.694,0,3.068,1.172,3.068,2.615s-1.375,2.614-3.068,2.614 C13.452,6.803,12.078,5.632,12.078,4.189z M17.341,27.627c-1.696,0-3.069-1.17-3.069-2.613s1.375-2.613,3.069-2.613 c1.695,0,3.07,1.17,3.07,2.613S19.036,27.627,17.341,27.627z M23.48,23.155c-1.695,0-3.069-1.173-3.069-2.614 c0-1.443,1.374-2.614,3.069-2.614c1.694,0,3.069,1.171,3.069,2.614C26.55,21.982,25.176,23.155,23.48,23.155z M25.146,16.604 c-1.695,0-3.07-1.17-3.07-2.614s1.375-2.614,3.07-2.614s3.07,1.17,3.07,2.614S26.843,16.604,25.146,16.604z" style="fill: rgb(255, 255, 255);"/>
    </g>
  </g>
</svg>