<?xml version="1.0" encoding="utf-8"?>
<svg width="96" height="104" viewBox="0 0 96 104" fill="none" xmlns="http://www.w3.org/2000/svg">
  <defs>
    <linearGradient id="paint1_linear" x1="53.3761" y1="113.413" x2="125.385" y2="30.6507" gradientUnits="userSpaceOnUse" gradientTransform="matrix(0.998217, 0, 0, 0.969782, 0.511132, 12.899884)">
      <stop stop-color="#F80759"/>
      <stop offset="1" stop-color="#BC4E9C"/>
    </linearGradient>
  </defs>
  <path fill-rule="evenodd" clip-rule="evenodd" d="M 43.408 13.872 L 53.38 13.872 C 69.905 13.872 83.3 26.896 83.3 42.966 L 83.3 52.664 C 83.3 68.731 69.905 81.757 53.38 81.757 L 43.408 81.757 C 26.881 81.757 13.487 68.731 13.487 52.664 L 13.487 42.966 C 13.487 26.896 26.881 13.872 43.408 13.872 Z" fill="url(#paint1_linear)" style=""/>
  <path d="M 37.164 25.392 L 32.871 25.392 C 27.923 25.392 25.325 27.865 25.325 32.552 L 25.325 36.638 C 25.325 41.325 27.923 43.798 32.849 43.798 L 37.141 43.798 C 42.066 43.798 44.664 41.325 44.664 36.638 L 44.664 32.552 C 44.686 27.865 42.088 25.392 37.164 25.392 Z" style="fill: rgb(255, 255, 255);"/>
  <path opacity="0.4" d="M 62.984 25.392 L 58.692 25.392 C 53.766 25.392 51.168 27.865 51.168 32.552 L 51.168 36.638 C 51.168 41.325 53.766 43.798 58.692 43.798 L 62.984 43.798 C 67.909 43.798 70.507 41.325 70.507 36.638 L 70.507 32.552 C 70.507 27.865 67.909 25.392 62.984 25.392 Z" style="fill: rgb(255, 255, 255);"/>
  <path d="M 62.984 49.969 L 58.692 49.969 C 53.766 49.969 51.168 52.442 51.168 57.13 L 51.168 61.216 C 51.168 65.903 53.766 68.375 58.692 68.375 L 62.984 68.375 C 67.909 68.375 70.507 65.903 70.507 61.216 L 70.507 57.13 C 70.507 52.442 67.909 49.969 62.984 49.969 Z" style="fill: rgb(255, 255, 255);"/>
  <path opacity="0.4" d="M 37.164 49.969 L 32.871 49.969 C 27.923 49.969 25.325 52.442 25.325 57.13 L 25.325 61.216 C 25.325 65.925 27.923 68.397 32.849 68.397 L 37.141 68.397 C 42.066 68.397 44.664 65.925 44.664 61.237 L 44.664 57.151 C 44.686 52.442 42.088 49.969 37.164 49.969 Z" style="fill: rgb(255, 255, 255);"/>
</svg>