<?xml version="1.0" encoding="utf-8"?>
<svg viewBox="0 0 57 57" fill="none" xmlns="http://www.w3.org/2000/svg">
  <defs>
    <linearGradient id="paint1_linear" x1="53.3761" y1="113.413" x2="125.385" y2="30.6507" gradientUnits="userSpaceOnUse" gradientTransform="matrix(0.7902, 0, 0, 0.794987, -9.478117, -0.046691)">
      <stop stop-color="#F80759"/>
      <stop offset="1" stop-color="#BC4E9C"/>
    </linearGradient>
  </defs>
  <path fill-rule="evenodd" clip-rule="evenodd" d="M31.2171 32.9625C31.3849 32.7923 31.4688 32.5914 31.4688 32.359V30.2147H40.3749V36.648C40.3749 37.2371 40.1674 37.7423 39.752 38.162C39.3368 38.5821 38.8375 38.7919 38.2545 38.7919H18.7456C18.1624 38.7919 17.6631 38.5821 17.2479 38.162C16.8325 37.7423 16.6249 37.2371 16.6249 36.648V30.2147H25.5312V32.359C25.5312 32.5914 25.6151 32.7923 25.783 32.9625C25.9509 33.1319 26.1497 33.2171 26.3795 33.2171H30.6206C30.8502 33.2171 31.0492 33.1319 31.2171 32.9625ZM30.1966 30.2147H26.8034V31.93H30.1966V30.2147ZM39.7521 22.2674C39.3369 21.8469 38.8376 21.637 38.2545 21.637H33.5891V19.4927C33.5891 19.1352 33.4656 18.8317 33.2181 18.581C32.9709 18.3316 32.6703 18.2061 32.317 18.2061H24.6831C24.3297 18.2061 24.0293 18.3316 23.7819 18.581C23.5345 18.8313 23.4108 19.1352 23.4108 19.4927V21.637H18.7456C18.1624 21.637 17.6631 21.8469 17.2479 22.2674C16.8325 22.6866 16.6249 23.1914 16.6249 23.7813V28.928H40.3749V23.7813C40.3749 23.1914 40.1674 22.6866 39.7521 22.2674ZM31.8929 21.637H25.1072V19.9213H31.8929V21.637Z" fill="white"/>
  <path fill-rule="evenodd" clip-rule="evenodd" d="M 24.479 0.75 L 32.373 0.75 C 45.452 0.75 56.057 11.427 56.057 24.601 L 56.057 32.551 C 56.057 45.722 45.452 56.4 32.373 56.4 L 24.479 56.4 C 11.395 56.4 0.793 45.722 0.793 32.551 L 0.793 24.601 C 0.793 11.427 11.395 0.75 24.479 0.75 Z" fill="url(#paint1_linear)" style=""/>
  <path d="M 21.748 16.667 C 21.155 16.667 20.675 17.131 20.676 17.702 C 20.676 18.273 21.156 18.735 21.748 18.737 C 22.576 18.712 23.063 17.834 22.628 17.157 C 22.438 16.862 22.108 16.679 21.748 16.667 Z" style="fill: rgb(255, 255, 255);"/>
  <path d="M 23.53 22.04 C 22.745 22.04 22.254 22.858 22.646 23.514 C 22.828 23.818 23.166 24.005 23.53 24.005 C 24.315 24.005 24.805 23.186 24.413 22.531 C 24.231 22.227 23.894 22.04 23.53 22.04 Z" style="fill: rgb(255, 255, 255);"/>
  <path d="M 19.8 22.673 C 19.015 22.673 18.525 23.493 18.917 24.147 C 19.1 24.451 19.436 24.639 19.8 24.639 C 20.586 24.639 21.076 23.82 20.684 23.164 C 20.502 22.86 20.165 22.673 19.8 22.673 Z" style="fill: rgb(255, 255, 255);"/>
  <path d="M 23.746 19.153 C 22.961 19.153 22.47 19.973 22.863 20.628 C 23.045 20.932 23.383 21.12 23.747 21.12 C 24.533 21.119 25.023 20.299 24.63 19.644 C 24.448 19.341 24.11 19.153 23.746 19.153 Z" style="fill: rgb(255, 255, 255);"/>
  <path d="M 41.405 11.543 L 15.97 11.543 C 13.478 11.543 11.451 13.496 11.451 15.897 L 11.451 40.394 C 11.451 42.795 13.477 44.748 15.97 44.748 L 41.405 44.748 C 43.896 44.748 45.924 42.795 45.924 40.394 L 45.924 15.897 C 45.924 13.496 43.896 11.543 41.405 11.543 Z M 15.089 20.977 C 15.089 17.657 17.894 14.954 21.342 14.954 C 24.789 14.954 27.594 17.656 27.594 20.977 C 27.594 24.298 24.789 26.999 21.342 26.999 C 17.894 26.999 15.089 24.298 15.089 20.977 Z M 25.284 31.825 L 31.503 35.284 L 30.887 36.311 L 24.667 32.853 L 25.283 31.825 L 25.284 31.825 Z M 40.736 40.739 L 25.443 40.739 L 25.443 38.281 L 30.877 38.281 C 34.594 38.281 37.618 35.37 37.618 31.79 C 37.618 29.524 36.4 27.479 34.497 26.313 L 31.398 31.486 L 30.754 31.127 L 29.839 32.65 L 28.222 31.751 L 29.136 30.227 L 28.491 29.867 L 35.863 17.566 L 36.361 17.841 L 37.103 16.606 L 39.042 17.684 L 38.3 18.92 L 38.772 19.183 L 35.773 24.185 C 38.506 25.816 40.169 28.692 40.171 31.789 C 40.171 34.351 39.034 36.648 37.235 38.281 L 40.737 38.281 L 40.737 40.739 L 40.736 40.739 Z" style="fill: rgb(255, 255, 255);"/>
  <path d="M 21.035 20.492 C 20.25 20.467 19.731 21.27 20.102 21.938 C 20.284 22.267 20.646 22.469 21.035 22.456 C 21.819 22.456 22.31 21.638 21.917 20.983 C 21.734 20.679 21.399 20.492 21.035 20.492 Z" style="fill: rgb(255, 255, 255);"/>
  <path d="M 19.739 18.996 L 17.683 18.996 L 17.683 20.991 L 19.739 20.991 L 19.739 18.996 Z M 19.306 20.579 L 18.105 20.579 L 18.105 19.407 L 19.306 19.407 L 19.306 20.579 Z" style="fill: rgb(255, 255, 255);"/>
  <path d="M 21.342 15.511 C 18.214 15.511 15.667 17.963 15.667 20.977 C 15.667 23.989 18.214 26.442 21.342 26.442 C 24.468 26.442 27.016 23.99 27.016 20.977 C 27.016 17.964 24.468 15.511 21.342 15.511 Z M 21.347 25.719 C 18.633 25.719 16.426 23.594 16.426 20.98 C 16.426 18.366 18.633 16.239 21.347 16.239 C 24.059 16.239 26.266 18.366 26.266 20.98 C 26.266 23.594 24.059 25.719 21.347 25.719 Z" style="fill: rgb(255, 255, 255);"/>
</svg>