<?xml version="1.0" encoding="utf-8"?>
<svg viewBox="0 0 57 57" fill="none" xmlns="http://www.w3.org/2000/svg">
  <defs>
    <linearGradient id="paint1_linear" x1="53.3761" y1="113.413" x2="125.385" y2="30.6507" gradientUnits="userSpaceOnUse" gradientTransform="matrix(0.7902, 0, 0, 0.794987, -9.589642, 0.102132)">
      <stop stop-color="#F80759"/>
      <stop offset="1" stop-color="#BC4E9C"/>
    </linearGradient>
  </defs>
  <path fill-rule="evenodd" clip-rule="evenodd" d="M 24.368 0.899 L 32.262 0.899 C 45.341 0.899 55.946 11.576 55.946 24.75 L 55.946 32.7 C 55.946 45.871 45.341 56.549 32.262 56.549 L 24.368 56.549 C 11.284 56.549 0.682 45.871 0.682 32.7 L 0.682 24.75 C 0.682 11.576 11.284 0.899 24.368 0.899 Z" fill="url(#paint1_linear)" style=""/>
  <path d="M 19.658 12.535 C 17.49 12.535 15.73 14.176 15.73 16.201 L 15.73 20.273 C 15.73 22.298 17.49 23.939 19.658 23.939 L 36.241 23.939 C 38.41 23.939 40.168 22.298 40.168 20.273 L 40.168 16.201 C 40.168 14.176 38.41 12.535 36.241 12.535 L 19.658 12.535 Z M 18.348 16.201 C 18.348 15.526 18.935 14.979 19.658 14.979 L 36.241 14.979 C 36.965 14.979 37.55 15.526 37.55 16.201 L 37.55 20.273 C 37.55 20.948 36.965 21.495 36.241 21.495 L 19.658 21.495 C 18.935 21.495 18.348 20.948 18.348 20.273 L 18.348 16.201 Z" style="fill: rgb(255, 255, 255);"/>
  <path d="M 23.934 33.714 C 23.26 33.714 22.712 34.261 22.712 34.935 C 22.712 35.61 23.26 36.157 23.934 36.157 L 31.964 36.157 C 32.639 36.157 33.186 35.61 33.186 34.935 C 33.186 34.261 32.639 33.714 31.964 33.714 L 23.934 33.714 Z" style="fill: rgb(255, 255, 255);"/>
  <path d="M 39.039 34.439 L 38.913 34.575 C 38.449 35.01 37.721 35.049 37.208 34.694 L 37.061 34.575 L 33.57 31.317 C 33.106 30.884 33.064 30.206 33.444 29.727 L 33.57 29.59 L 37.061 26.332 C 37.573 25.855 38.402 25.855 38.913 26.332 C 39.377 26.765 39.419 27.445 39.039 27.922 L 38.913 28.059 L 37.658 29.233 L 40.275 29.233 C 41.404 29.233 42.334 28.432 42.446 27.406 L 42.457 27.197 L 42.457 23.532 C 42.457 22.857 43.043 22.31 43.766 22.31 C 44.429 22.31 44.977 22.769 45.063 23.365 L 45.075 23.532 L 45.075 27.197 C 45.075 29.579 43.082 31.527 40.568 31.669 L 40.275 31.677 L 37.66 31.677 L 38.913 32.849 C 39.377 33.282 39.419 33.961 39.039 34.439 Z" style="fill: rgb(255, 255, 255);"/>
  <path d="M 40.168 39.008 L 40.168 35.708 L 40.147 35.729 C 39.439 36.389 38.47 36.657 37.55 36.534 L 37.55 39.008 C 37.55 39.683 36.965 40.23 36.241 40.23 L 19.658 40.23 C 18.935 40.23 18.348 39.683 18.348 39.008 L 18.348 30.863 C 18.348 30.188 18.935 29.641 19.658 29.641 L 31.568 29.641 C 31.667 29.328 31.824 29.028 32.041 28.756 L 32.079 28.707 L 32.29 28.481 L 33.666 27.197 L 19.658 27.197 C 17.49 27.197 15.73 28.838 15.73 30.863 L 15.73 39.008 C 15.73 41.033 17.49 42.674 19.658 42.674 L 36.241 42.674 C 38.41 42.674 40.168 41.033 40.168 39.008 Z" style="fill: rgb(255, 255, 255);"/>
</svg>